M48
;Layer_Color=9474304
;FILE_FORMAT=4:4
METRIC,LZ
;TYPE=PLATED
T1F00S00C0.3000
T4F00S00C1.0000
T5F00S00C1.1000
T6F00S00C1.5000
T7F00S00C3.2000
;TYPE=NON_PLATED
T8F00S00C3.2000
%
T01
X00086Y0010625
X0008625Y0011625
X001Y00156
X00108
X00116
X00108Y00148
X00125Y00178
X00142Y00179
Y00172
Y00186
X00156Y00205
X00162Y00215
X0017675Y002105
X00176334Y00198709
X001995Y00211
X0021125Y002095
X0023625Y002015
X0024Y00185
X0023425Y001355
X0021125
X002Y00144
X00163Y0013275
X00151Y001355
X00113Y00193
Y0021525
X001395Y00225
X0015Y0027
X0018475Y0028775
X0022325Y002485
X0027175Y0024075
X00312Y00226
X00324Y00245
X003275Y001735
X003025Y001745
X00304Y0008475
X0028925Y000635
X0031875Y0006325
X00326Y00067
X0027175Y00345
X00222Y0033475
X0009025Y0032
X00079Y0029175
X0009925Y00272
X00105Y0025
X000775Y0024925
X00078Y0022675
X00059Y00228
X0005925Y0022
X00078083Y00183392
X000405Y0028425
X00011Y0028725
X00395295Y00252258
X0047375Y0025125
X00444Y0021875
X0045425Y00151
X0045775Y00112
X00481Y001
X0047275Y000875
X004645Y0004225
X004435Y0004725
X00428Y00063
X0042075Y0006275
X0041375
X003955Y00086
X00403Y001115
X0036825Y000685
X00612Y00072
Y0008
X00601Y0018
X00632Y00184
X0063825Y0017375
X0066725Y0016025
X00679Y00126
X00579442Y00382265
Y00389265
X005795Y003965
X0058Y00407
X00585Y00424
X00572Y00429
X00552Y00417
X006235Y00451
X004135Y00479
Y00486
X00406
Y00479
Y00397
Y0039
X00413
Y00397
X00329Y00417
X00326Y00429
X00304826Y00418446
X0028Y004815
X0022375Y0048325
X0022625Y004425
X001995Y0043125
X0019225Y0041475
X00171285Y00415731
X00123Y0041
X00116Y00414
X00115785Y00406096
X0009925Y0036975
X0009025Y0036925
X00061Y00451
X00053132Y00521705
X0021875Y00407
T04
X00202Y00021
X00247
X00202Y00086
X0059425Y00261
Y00306
X0065925
T05
X001162Y00088
X001416
X00167
X0029045Y0012573
X0031585
X0034125
Y0020193
X0031585
X0029045
X002794Y000254
X003048
X003302
X003556
X000508Y003166
X000254
Y00342
X000508
X0036665Y0020193
X0039205
X0041745
X0044285
X0046825
X0049365
X0051905
X0054445
X0056985
X0059525
X0062065
Y0012573
X0059525
X0056985
X0054445
X0051905
X0049365
X0046825
X0044285
X0041745
X0039205
X0036665
X00381Y000254
X004064
X004318
X004572
X00508
X005334
X005588
X005842
X006096
X00635
X00662Y004182
Y004436
Y00469
X00635Y00508
X006096
X005842
X005588
X005334
X00508
X004826
X004572
X0041656
X0039116
X0036576
X0034036
X0031496
X0028956
X0026416
X0023876
X0021336
X0018796
X00146Y00446
Y004206
Y003952
Y003698
X000762Y0038608
Y0041148
X000508
X000254
Y0038608
X000508
Y0047244
Y0049784
X000762
Y0047244
X000254
Y0049784
T06
X00021Y00026
Y00134
T07
X001397Y000254
X006604Y000762
Y003556
T08
X001524Y00508
M30
