G04*
G04 #@! TF.GenerationSoftware,Altium Limited,Altium Designer,21.6.4 (81)*
G04*
G04 Layer_Color=8388736*
%FSLAX44Y44*%
%MOMM*%
G71*
G04*
G04 #@! TF.SameCoordinates,5A2D479A-7A81-4301-8FED-CA8905A59E07*
G04*
G04*
G04 #@! TF.FilePolarity,Negative*
G04*
G01*
G75*
%ADD34R,0.9000X1.5000*%
%ADD35R,1.5000X0.9000*%
%ADD36R,0.8858X0.7588*%
%ADD37R,0.7588X0.8858*%
%ADD38R,3.7000X2.4000*%
%ADD39R,0.8000X2.4000*%
%ADD40R,2.8000X2.7000*%
%ADD41R,2.7000X2.8000*%
%ADD42R,1.2000X0.7500*%
%ADD43R,0.7500X1.2000*%
%ADD44R,1.8000X3.2000*%
%ADD45C,3.0480*%
%ADD46R,2.9000X2.2000*%
%ADD47R,1.0000X1.0000*%
%ADD48R,1.4500X0.5000*%
%ADD49R,1.6000X1.8000*%
%ADD50R,2.1000X2.1000*%
%ADD51R,0.6700X1.6200*%
%ADD52R,1.6200X0.6700*%
%ADD53R,1.1000X0.8000*%
%ADD54R,1.1000X1.5000*%
%ADD55R,1.5000X1.1000*%
%ADD56C,2.1000*%
%ADD57R,2.1000X2.1000*%
%ADD58C,3.4000*%
%ADD59C,4.2000*%
%ADD60R,1.8000X2.2000*%
%ADD61O,1.8000X2.2000*%
%ADD62O,2.2000X1.8000*%
%ADD63R,2.2000X1.8000*%
%ADD64C,7.6000*%
%ADD65C,1.9000*%
%ADD66R,1.9000X1.9000*%
G04:AMPARAMS|DCode=67|XSize=2.2mm|YSize=1.4mm|CornerRadius=0.46mm|HoleSize=0mm|Usage=FLASHONLY|Rotation=0.000|XOffset=0mm|YOffset=0mm|HoleType=Round|Shape=RoundedRectangle|*
%AMROUNDEDRECTD67*
21,1,2.2000,0.4800,0,0,0.0*
21,1,1.2800,1.4000,0,0,0.0*
1,1,0.9200,0.6400,-0.2400*
1,1,0.9200,-0.6400,-0.2400*
1,1,0.9200,-0.6400,0.2400*
1,1,0.9200,0.6400,0.2400*
%
%ADD67ROUNDEDRECTD67*%
D34*
X253500Y443000D02*
D03*
X234500D02*
D03*
X578500Y351000D02*
D03*
X597500D02*
D03*
X295250Y441500D02*
D03*
X276250D02*
D03*
Y418500D02*
D03*
X295250D02*
D03*
X146500Y213000D02*
D03*
X127500D02*
D03*
X99500Y350000D02*
D03*
X80500D02*
D03*
X104500Y215000D02*
D03*
X85500D02*
D03*
Y193000D02*
D03*
X104500D02*
D03*
Y171000D02*
D03*
X85500D02*
D03*
X387500Y99250D02*
D03*
X368500D02*
D03*
X407500Y229000D02*
D03*
X426500D02*
D03*
X11500Y255000D02*
D03*
X30500D02*
D03*
X289500Y87000D02*
D03*
X270500D02*
D03*
X622500Y226000D02*
D03*
X603500D02*
D03*
D35*
X172000Y387500D02*
D03*
Y406500D02*
D03*
X222000Y268500D02*
D03*
Y287500D02*
D03*
X611000Y472500D02*
D03*
Y453500D02*
D03*
X585000D02*
D03*
Y472500D02*
D03*
X636000Y431750D02*
D03*
Y412750D02*
D03*
X333000Y83500D02*
D03*
Y64500D02*
D03*
Y45500D02*
D03*
Y64500D02*
D03*
X254000Y165500D02*
D03*
Y146500D02*
D03*
X644750Y222750D02*
D03*
Y241750D02*
D03*
X91000Y282500D02*
D03*
Y263500D02*
D03*
X30000Y273500D02*
D03*
Y292500D02*
D03*
X666750Y207750D02*
D03*
Y188750D02*
D03*
X274000Y67500D02*
D03*
Y48500D02*
D03*
X665750Y222750D02*
D03*
Y241750D02*
D03*
D36*
X11000Y296192D02*
D03*
Y271808D02*
D03*
D37*
X625192Y243500D02*
D03*
X600808D02*
D03*
D38*
X163000Y178250D02*
D03*
D39*
Y116250D02*
D03*
X150300D02*
D03*
X137600D02*
D03*
X188400D02*
D03*
X175700D02*
D03*
D40*
X253000Y268500D02*
D03*
Y317500D02*
D03*
D41*
X460500Y284000D02*
D03*
X411500D02*
D03*
D42*
X168500Y442500D02*
D03*
Y433000D02*
D03*
Y423500D02*
D03*
X195500Y442500D02*
D03*
Y423500D02*
D03*
X207500Y163500D02*
D03*
Y154000D02*
D03*
Y144500D02*
D03*
X234500Y163500D02*
D03*
Y144500D02*
D03*
D43*
X51500Y249500D02*
D03*
X61000D02*
D03*
X70500D02*
D03*
X51500Y276500D02*
D03*
X70500D02*
D03*
X667250Y171000D02*
D03*
X657750D02*
D03*
X648250D02*
D03*
X667250Y144000D02*
D03*
X648250D02*
D03*
D44*
X74000Y140500D02*
D03*
Y99500D02*
D03*
X72000Y61500D02*
D03*
Y20500D02*
D03*
D45*
X225000Y44000D02*
D03*
X668000Y19000D02*
D03*
Y513000D02*
D03*
X98000Y517000D02*
D03*
D46*
X22000Y96000D02*
D03*
Y64000D02*
D03*
D47*
X237000Y423000D02*
D03*
X253000D02*
D03*
X579750Y370000D02*
D03*
X595750D02*
D03*
X237000Y399000D02*
D03*
X253000D02*
D03*
X237000Y381000D02*
D03*
X253000D02*
D03*
D48*
X48745Y188000D02*
D03*
Y194500D02*
D03*
Y201000D02*
D03*
Y207500D02*
D03*
Y214000D02*
D03*
D49*
X46495Y169000D02*
D03*
Y233000D02*
D03*
D50*
X21995Y189000D02*
D03*
Y213000D02*
D03*
X247000Y86000D02*
D03*
D51*
X182000Y258000D02*
D03*
X174000D02*
D03*
X166000D02*
D03*
X158000D02*
D03*
X150000D02*
D03*
X142000D02*
D03*
X134000D02*
D03*
X126000D02*
D03*
Y342000D02*
D03*
X134000D02*
D03*
X142000D02*
D03*
X150000D02*
D03*
X166000D02*
D03*
X174000D02*
D03*
X182000D02*
D03*
X158000D02*
D03*
D52*
X112000Y272000D02*
D03*
Y280000D02*
D03*
Y288000D02*
D03*
Y296000D02*
D03*
Y304000D02*
D03*
Y312000D02*
D03*
Y320000D02*
D03*
Y328000D02*
D03*
X196000D02*
D03*
Y320000D02*
D03*
Y312000D02*
D03*
Y304000D02*
D03*
Y296000D02*
D03*
Y288000D02*
D03*
Y280000D02*
D03*
Y272000D02*
D03*
D53*
X69000Y226500D02*
D03*
Y211500D02*
D03*
Y182500D02*
D03*
Y197500D02*
D03*
D54*
X403500Y50000D02*
D03*
X384500D02*
D03*
X597250Y330000D02*
D03*
X578250D02*
D03*
X146500Y235000D02*
D03*
X127500D02*
D03*
X261500Y345000D02*
D03*
X242500D02*
D03*
X262500Y240000D02*
D03*
X243500D02*
D03*
X40500Y522000D02*
D03*
X21500D02*
D03*
X464500Y77250D02*
D03*
X483500D02*
D03*
X444500Y229000D02*
D03*
X463500D02*
D03*
X260500Y485000D02*
D03*
X241500D02*
D03*
X404500Y77250D02*
D03*
X423500D02*
D03*
X404500Y99250D02*
D03*
X423500D02*
D03*
X460500D02*
D03*
X441500D02*
D03*
X406500Y252000D02*
D03*
X425500D02*
D03*
X463500D02*
D03*
X444500D02*
D03*
X69500Y292000D02*
D03*
X50500D02*
D03*
X669500Y126000D02*
D03*
X650500D02*
D03*
X105500Y237000D02*
D03*
X86500D02*
D03*
X464500Y55250D02*
D03*
X483500D02*
D03*
D55*
X304000Y66500D02*
D03*
Y47500D02*
D03*
X355000Y66500D02*
D03*
Y47500D02*
D03*
X214000Y423500D02*
D03*
Y442500D02*
D03*
X223000Y219500D02*
D03*
Y238500D02*
D03*
X200000Y238500D02*
D03*
Y219500D02*
D03*
X222000Y304500D02*
D03*
Y323500D02*
D03*
X177000Y219500D02*
D03*
Y238500D02*
D03*
X23000Y451250D02*
D03*
Y432250D02*
D03*
X636000Y453500D02*
D03*
Y472500D02*
D03*
X116000Y133500D02*
D03*
Y114500D02*
D03*
X211000Y107500D02*
D03*
Y126500D02*
D03*
X223000Y200500D02*
D03*
Y181500D02*
D03*
X234000Y126500D02*
D03*
Y107500D02*
D03*
X644750Y186750D02*
D03*
Y205750D02*
D03*
X200000Y181500D02*
D03*
Y200500D02*
D03*
X444000Y59750D02*
D03*
Y78750D02*
D03*
D56*
X202000Y86000D02*
D03*
Y21000D02*
D03*
X247000D02*
D03*
X594250Y261000D02*
D03*
Y306000D02*
D03*
X659250D02*
D03*
D57*
Y261000D02*
D03*
D58*
X152400Y508000D02*
D03*
D59*
X21000Y26000D02*
D03*
Y134000D02*
D03*
D60*
X416560Y508000D02*
D03*
X279400Y25400D02*
D03*
X635000Y508000D02*
D03*
X508000Y25400D02*
D03*
X116200Y88000D02*
D03*
X620650Y201930D02*
D03*
D61*
X391160Y508000D02*
D03*
X365760D02*
D03*
X340360D02*
D03*
X314960D02*
D03*
X289560D02*
D03*
X264160D02*
D03*
X238760D02*
D03*
X213360D02*
D03*
X187960D02*
D03*
X304800Y25400D02*
D03*
X330200D02*
D03*
X355600D02*
D03*
X381000D02*
D03*
X406400D02*
D03*
X431800D02*
D03*
X457200D02*
D03*
X609600Y508000D02*
D03*
X584200D02*
D03*
X558800D02*
D03*
X533400D02*
D03*
X508000D02*
D03*
X482600D02*
D03*
X457200D02*
D03*
X635000Y25400D02*
D03*
X609600D02*
D03*
X584200D02*
D03*
X558800D02*
D03*
X533400D02*
D03*
X167000Y88000D02*
D03*
X141600D02*
D03*
X290450Y125730D02*
D03*
X315850D02*
D03*
X341250D02*
D03*
X366650D02*
D03*
X392050D02*
D03*
X417450D02*
D03*
X442850D02*
D03*
X468250D02*
D03*
X493650D02*
D03*
X519050D02*
D03*
X544450D02*
D03*
X569850D02*
D03*
X595250D02*
D03*
X620650D02*
D03*
X290450Y201930D02*
D03*
X315850D02*
D03*
X341250D02*
D03*
X366650D02*
D03*
X392050D02*
D03*
X417450D02*
D03*
X442850D02*
D03*
X468250D02*
D03*
X493650D02*
D03*
X519050D02*
D03*
X544450D02*
D03*
X569850D02*
D03*
X595250D02*
D03*
D62*
X146000Y369800D02*
D03*
Y395200D02*
D03*
Y420600D02*
D03*
X662000Y418200D02*
D03*
Y443600D02*
D03*
D63*
X146000Y446000D02*
D03*
X662000Y469000D02*
D03*
D64*
X139700Y25400D02*
D03*
X660400Y76200D02*
D03*
Y355600D02*
D03*
D65*
X76200Y411480D02*
D03*
X50800D02*
D03*
X25400D02*
D03*
X76200Y386080D02*
D03*
X50800D02*
D03*
X76200Y497840D02*
D03*
X50800D02*
D03*
X25400D02*
D03*
X76200Y472440D02*
D03*
X50800D02*
D03*
X25400Y316600D02*
D03*
X50800D02*
D03*
X25400Y342000D02*
D03*
D66*
Y386080D02*
D03*
Y472440D02*
D03*
X50800Y342000D02*
D03*
D67*
X21995Y168000D02*
D03*
Y234000D02*
D03*
M02*
